# xmcd
#
# Track frame offsets:
#	150
#	9696
#	23337
#	30843
#	40397
#	54143
#	63743
#	74692
#	86704
#	103777
#	114316
#	122470
#	131846
#	137382
#	146426
#	153995
#	167563
#	177193
#	184632
#	195480
#
# Disc length: 2756 seconds
#
# Revision: 1
# Processed by: cddbd v1.5.2PL0 Copyright (c) Steve Scherf et al.
# Submitted via: EasyCDDAExtractor 2010.4.0.0
#
DISCID=030ac214
DTITLE=윙크 - 창작동요
DYEAR=2010
DGENRE=동요/가요
TTITLE0=아빠 힘내세요
TTITLE1=삼강오륜
TTITLE2=오늘같이 좋은날
TTITLE3=저탄소 녹색 성장의 노래
TTITLE4=어린이 성폭행 예방의 노래
TTITLE5=인터넷 중독 예방의 노래
TTITLE6=칭찬송
TTITLE7=학원폭력 예방의 노래
TTITLE8=예쁜손 미운손
TTITLE9=독도송
TTITLE10=안전벨트
TTITLE11=큰 사랑
TTITLE12=호칭관계
TTITLE13=엄마 아빠 사랑해요
TTITLE14=청개구리
TTITLE15=부모님
TTITLE16=아! 고구려
TTITLE17=음식물
TTITLE18=청계천이 좋아요
TTITLE19=이모부님 이모님
EXTD=
EXTT0=
EXTT1=
EXTT2=
EXTT3=
EXTT4=
EXTT5=
EXTT6=
EXTT7=
EXTT8=
EXTT9=
EXTT10=
EXTT11=
EXTT12=
EXTT13=
EXTT14=
EXTT15=
EXTT16=
EXTT17=
EXTT18=
EXTT19=
PLAYORDER=
